<svg width="35" height="35" viewBox="0 0 24 24" fill="none" xmlns="http://www.w3.org/2000/svg">
<path d="M12 16.8516C12.3906 16.8516 12.7188 16.7031 13.0234 16.3906L18.8047 10.4766C19.0391 10.2422 19.1562 9.96094 19.1562 9.61719C19.1562 8.92188 18.6016 8.35938 17.9141 8.35938C17.5781 8.35938 17.2578 8.5 17 8.75781L12.0078 13.9141L7.00781 8.75781C6.75 8.5 6.42969 8.35938 6.08594 8.35938C5.39844 8.35938 4.84375 8.92188 4.84375 9.61719C4.84375 9.95312 4.96094 10.2344 5.19531 10.4766L10.9766 16.3906C11.2969 16.7109 11.6172 16.8516 12 16.8516Z" fill="#9aa4aa"/>
</svg>
