<svg width="24" height="24" viewBox="0 0 24 24" fill="none" xmlns="http://www.w3.org/2000/svg">
<path d="M12 19.25C18.5703 19.25 22.8359 13.9766 22.8359 12.375C22.8359 10.7656 18.5625 5.5 12 5.5C5.53125 5.5 1.16406 10.7656 1.16406 12.375C1.16406 13.9766 5.53125 19.25 12 19.25ZM12 17.2812C7.27344 17.2812 3.64844 13.4375 3.64844 12.375C3.64844 11.4922 7.27344 7.46875 12 7.46875C16.7188 7.46875 20.3516 11.4922 20.3516 12.375C20.3516 13.4375 16.7188 17.2812 12 17.2812ZM12.0078 16.2891C14.1875 16.2891 15.9219 14.5078 15.9219 12.375C15.9219 10.1953 14.1875 8.46094 12.0078 8.46094C9.82031 8.46094 8.07031 10.1875 8.07812 12.375C8.07812 14.5078 9.82031 16.2891 12.0078 16.2891ZM12 13.5781C11.3281 13.5781 10.7969 13.0312 10.7969 12.375C10.7969 11.7109 11.3281 11.1719 12 11.1719C12.6641 11.1719 13.2031 11.7109 13.2031 12.375C13.2031 13.0312 12.6641 13.5781 12 13.5781Z" fill="#767371"/>
</svg>
