<?xml version="1.0" encoding="iso-8859-1"?>
<!-- Generator: Adobe Illustrator 19.0.0, SVG Export Plug-In . SVG Version: 6.00 Build 0)  -->
<svg version="1.1" id="Layer_1" xmlns="http://www.w3.org/2000/svg" xmlns:xlink="http://www.w3.org/1999/xlink" x="0px" y="0px"
	 viewBox="0 0 511.941 511.941" style="enable-background:new 0 0 511.941 511.941;" xml:space="preserve">
<g>
	<g>
		<g>
			<path d="M255.981,298.608c-5.888,0-10.667,4.779-10.667,10.667v149.333c0,5.888,4.779,10.667,10.667,10.667
				s10.667-4.779,10.667-10.667V309.275C266.648,303.387,261.869,298.608,255.981,298.608z"/>
			<path d="M191.448,359.28c-0.021-0.043-0.021-0.085-0.043-0.128l-31.979-95.936c-1.387-4.096-5.056-6.955-9.387-7.253
				c-4.16-0.299-8.363,2.005-10.283,5.867l-42.667,85.333c-2.624,5.269-0.491,11.669,4.779,14.315
				c5.291,2.603,11.691,0.512,14.315-4.779l5.888-11.776l50.496,25.259l9.28,27.819c1.515,4.48,5.675,7.296,10.133,7.296
				c1.131,0,2.24-0.171,3.349-0.576c5.568-1.856,8.597-7.893,6.741-13.483L191.448,359.28z M131.629,325.808l15.701-31.424
				l15.701,47.125L131.629,325.808z"/>
			<path d="M218.093,235.717l-128-64c-5.269-2.603-11.669-0.491-14.336,4.779c-2.603,5.269-0.491,11.669,4.779,14.315l128,64
				c1.557,0.768,3.179,1.131,4.779,1.131c3.904,0,7.659-2.155,9.536-5.909C225.475,244.763,223.341,238.363,218.093,235.717z"/>
			<path d="M421.891,171.739l-128,64c-5.269,2.645-7.403,9.045-4.779,14.315c1.877,3.733,5.632,5.888,9.536,5.888
				c1.6,0,3.221-0.363,4.779-1.109l128-64c5.269-2.645,7.403-9.045,4.779-14.315C433.56,171.227,427.203,169.115,421.891,171.739z"
				/>
			<path d="M455,102.832c-0.427-0.363-0.939-0.683-1.451-0.981L282.243,6.277c-0.704-0.384-1.451-0.683-2.219-0.896
				c-15.339-7.147-32.64-7.189-48.021-0.043c-0.811,0.235-1.579,0.533-2.304,0.96L58.392,101.872
				c-0.512,0.277-0.96,0.597-1.408,0.96c-15.488,8.896-25.003,24.512-25.003,41.131v224c0,16.619,9.515,32.213,24.96,41.109
				c0.427,0.363,0.939,0.683,1.451,0.981l171.307,95.573c0.704,0.384,1.451,0.683,2.219,0.896c7.68,3.605,15.765,5.419,24.064,5.419
				c8.256,0,16.299-1.792,23.957-5.376c0.811-0.235,1.579-0.533,2.304-0.96l171.307-95.573c0.512-0.277,0.981-0.597,1.429-0.96
				c15.467-8.896,24.981-24.512,24.981-41.131v-224C479.981,127.323,470.445,111.728,455,102.832z M458.648,367.941
				c0,9.451-5.739,18.133-15.296,23.232c-0.576,0.299-1.152,0.661-1.643,1.067l-168.256,93.888
				c-0.448,0.149-0.896,0.341-1.344,0.555c-10.347,5.205-21.888,5.205-32.213,0c-0.427-0.192-0.875-0.384-1.323-0.533L70.296,392.24
				c-0.491-0.405-1.067-0.768-1.664-1.088c-9.579-5.077-15.317-13.76-15.317-23.211v-224c0-9.451,5.739-18.133,15.296-23.211
				c0.576-0.299,1.152-0.661,1.643-1.067l168.256-93.888c0.448-0.149,0.896-0.341,1.344-0.555c10.347-5.205,21.888-5.205,32.213,0
				c0.427,0.192,0.875,0.384,1.323,0.533l168.277,93.888c0.491,0.405,1.067,0.768,1.664,1.088c9.6,5.077,15.317,13.76,15.317,23.211
				V367.941z"/>
			<path d="M336.835,128.667c-0.597-12.971-7.915-24.192-19.648-30.059c-18.389-9.195-40.597-8.128-57.984,2.752l-3.925,2.432
				c-1.92-9.237-7.893-17.024-16.597-21.376c-9.195-4.629-20.117-4.395-29.12,0.597l-65.344,35.563
				c-3.541,1.92-5.717,5.717-5.568,9.749c0.149,4.032,2.56,7.659,6.251,9.323l117.333,53.333c1.408,0.64,2.923,0.96,4.416,0.96
				c1.984,0,3.947-0.533,5.675-1.643l47.915-29.931C331.267,153.499,337.453,141.637,336.835,128.667z M173.208,127.088
				l46.613-25.365c2.837-1.6,6.336-1.707,9.301-0.213c4.715,2.347,5.44,6.677,5.525,8.448c0.064,1.771-0.213,6.144-4.821,9.024
				l-30.72,19.883L173.208,127.088z M308.931,142.277l-43.072,26.901l-43.371-19.712l48.043-30.016
				c11.157-6.976,25.365-7.659,37.269-1.707c4.629,2.304,7.509,6.763,7.765,11.925C315.757,134.832,313.325,139.547,308.931,142.277
				z"/>
			<path d="M405.336,332.165c-5.888,0-10.667,4.779-10.667,10.667c0,8.149-4.523,15.467-11.797,19.093
				c-6.699,3.328-14.443,2.987-20.757-0.939c-6.443-3.968-10.133-10.603-10.133-18.155v-28.523c0-12.181,6.763-23.147,17.685-28.608
				c5.483-2.731,11.563-2.432,16.789,0.768c5.205,3.2,8.192,8.555,8.192,14.677c0,5.888,4.779,10.667,10.667,10.667
				c5.888,0,10.667-4.779,10.667-10.667c0-13.483-6.827-25.749-18.304-32.832c-11.413-7.083-25.472-7.723-37.547-1.707
				c-18.197,9.088-29.483,27.371-29.483,47.701v28.523c0,14.891,7.552,28.459,20.224,36.288c6.891,4.267,14.656,6.421,22.421,6.421
				c6.507,0,13.035-1.515,19.136-4.544c14.528-7.275,23.573-21.888,23.573-38.165C416.003,336.944,411.224,332.165,405.336,332.165z
				"/>
		</g>
	</g>
</g>
<g>
</g>
<g>
</g>
<g>
</g>
<g>
</g>
<g>
</g>
<g>
</g>
<g>
</g>
<g>
</g>
<g>
</g>
<g>
</g>
<g>
</g>
<g>
</g>
<g>
</g>
<g>
</g>
<g>
</g>
</svg>
