<svg id="_x31_" enable-background="new 0 0 24 24" height="512" viewBox="0 0 24 24" width="512" xmlns="http://www.w3.org/2000/svg"><g><g><g><path d="m6.569 24.021c-.276 0-.5-.224-.5-.5v-.869c0-.309-.094-.606-.271-.861l-1.984-2.833c-.814-1.163-1.032-2.66-.583-4.005l.996-2.988c.288-.864 1.094-1.444 2.004-1.444h4.76c.561 0 1.042.322 1.257.84.215.519.102 1.087-.295 1.483-.926.925-2.112 1.495-3.394 1.64 1.372 1.15 2.415 2.674 2.983 4.379.087.262-.054.545-.316.633-.264.088-.545-.056-.632-.316-.61-1.83-1.83-3.427-3.435-4.496l-.369-.246c-.183-.122-.265-.351-.201-.562.064-.21.258-.354.479-.354h.835c1.263 0 2.449-.491 3.342-1.384.154-.154.106-.326.078-.394s-.116-.223-.333-.223h-4.76c-.479 0-.904.306-1.056.761l-.995 2.988c-.348 1.045-.179 2.209.454 3.113l1.984 2.834c.296.424.452.92.452 1.435v.869c0 .276-.224.5-.5.5z"/></g></g><g><g><path d="m15.256 13.383c-.041 0-.082-.005-.123-.015-.268-.067-.43-.34-.363-.607l2.336-9.285c.029-.111.036-.212.024-.319-.043-.4-.349-.74-.761-.847-.533-.134-1.071.172-1.201.672l-2.179 8.681c-.068.268-.343.426-.606.363-.268-.067-.431-.339-.363-.607l2.18-8.685c.267-1.027 1.349-1.651 2.412-1.395.821.212 1.425.898 1.513 1.709.025.228.009.448-.049.675l-2.336 9.282c-.057.226-.261.378-.484.378z"/></g></g><g><g><path d="m18.048 14.5c-.078 0-.156-.018-.23-.057-.245-.127-.34-.429-.213-.674l2.297-4.419c.238-.485.033-1.085-.462-1.328-.24-.12-.51-.135-.764-.049-.253.086-.457.266-.575.506l-2.403 4.634c-.127.244-.431.34-.674.214-.245-.128-.341-.43-.214-.675l2.398-4.624c.23-.47.639-.829 1.144-1.002.506-.171 1.048-.138 1.528.098.99.486 1.399 1.688.914 2.678l-2.302 4.429c-.089.171-.263.269-.444.269z"/></g></g><g><g><path d="m6.628 11.521c-.22 0-.421-.146-.482-.369l-2.08-7.662c-.147-.564-.043-1.157.286-1.633s.846-.783 1.421-.846c.969-.109 1.886.527 2.133 1.47l2.214 8.412c.07.267-.089.54-.356.61-.266.075-.54-.089-.611-.356l-2.215-8.412c-.123-.467-.578-.782-1.058-.729-.285.031-.542.184-.705.42-.163.235-.215.53-.143.807l2.079 7.656c.072.267-.085.541-.352.613-.043.013-.088.019-.131.019z"/></g></g><g><g><path d="m12.5 12.04c-.001 0-.001 0-.002 0-.276-.001-.499-.227-.498-.502l.045-9.537c.001-.297-.13-.577-.358-.769-.229-.191-.529-.269-.823-.216-.468.088-.864.573-.864 1.059v8.945c0 .276-.224.5-.5.5s-.5-.223-.5-.499v-8.946c0-.97.738-1.866 1.682-2.041.588-.114 1.187.047 1.646.431.458.382.72.943.718 1.54l-.046 9.537c-.001.275-.225.498-.5.498z"/></g></g><g><g><path d="m15.32 24.02c-.276 0-.5-.224-.5-.5v-.804c0-.578.206-1.139.579-1.579 1.239-1.464 1.971-3.325 2.061-5.241l.09-1.919c.013-.275.245-.52.523-.476.276.013.489.247.476.522l-.09 1.919c-.101 2.135-.916 4.209-2.296 5.841-.221.26-.342.591-.342.933v.804c-.001.276-.225.5-.501.5z"/></g></g></g></svg>