<?xml version="1.0" encoding="iso-8859-1"?>
<!-- Generator: Adobe Illustrator 19.0.0, SVG Export Plug-In . SVG Version: 6.00 Build 0)  -->
<svg version="1.1" id="Capa_1" xmlns="http://www.w3.org/2000/svg" xmlns:xlink="http://www.w3.org/1999/xlink" x="0px" y="0px"
	 viewBox="0 0 512 512" style="enable-background:new 0 0 512 512;" xml:space="preserve">
<g>
	<g>
		<path d="M273.826,163h-5.8V93c0-4.508-3.017-8.459-7.365-9.646c-4.346-1.188-8.955,0.681-11.246,4.563l-14.012,23.735
			c-2.808,4.756-1.229,10.887,3.527,13.695c2.877,1.698,6.254,1.791,9.096,0.549V163h-5.799c-5.522,0-10,4.477-10,10s4.478,10,10,10
			h31.599c5.522,0,10-4.477,10-10S279.348,163,273.826,163z"/>
	</g>
</g>
<g>
	<g>
		<path d="M157.055,409h-21.669c12.43-12.798,25.777-30.763,25.777-48.891c0-18.607-12.502-31.109-31.108-31.109
			c-17.153,0-31.109,13.956-31.109,31.109c0,5.523,4.478,10,10,10c5.522,0,10-4.477,10-10c0-6.125,4.983-11.109,11.109-11.109
			c9.957,0,11.108,6.34,11.108,11.109c0,18.531-28.251,43.54-38.142,50.834c-3.481,2.56-4.925,7.067-3.578,11.174
			c1.348,4.106,5.181,6.883,9.502,6.883h48.109c5.522,0,10-4.477,10-10S162.577,409,157.055,409z"/>
	</g>
</g>
<g>
	<g>
		<path d="M407.624,359.134c0.001-16.513-13.433-29.947-29.944-29.947h-17.305c-5.522,0-10,4.477-10,10s4.478,10,10,10h17.305
			c5.483,0,9.945,4.461,9.945,9.946c0,4.986-3.691,9.114-8.481,9.826c-0.485-0.023-0.973-0.037-1.464-0.037h-17.305
			c-5.522,0-10,4.477-10,10s4.478,10,10,10h6.961c0.558,0.097,1.129,0.157,1.714,0.157h8.629c0.491,0,0.979-0.014,1.464-0.037
			c4.79,0.712,8.481,4.84,8.481,9.826c0,5.484-4.462,9.946-9.945,9.946h-17.305c-5.522,0-10,4.477-10,10s4.478,10,10,10h17.305
			c16.512,0,29.945-13.434,29.945-29.946c0-7.618-2.864-14.577-7.566-19.867C404.76,373.71,407.624,366.752,407.624,359.134z"/>
	</g>
</g>
<g>
	<g>
		<path d="M462,246h-83.027c6.292-8.363,10.027-18.753,10.027-30v-44.667c0-5.523-4.478-10-10-10c-5.522,0-10,4.477-10,10V216
			c0,16.542-13.458,30-30,30H173c-16.542,0-30-13.458-30-30V50c0-16.542,13.458-30,30-30h166c16.542,0,30,13.458,30,30v38
			c0,5.523,4.478,10,10,10c5.522,0,10-4.477,10-10V50c0-27.57-22.43-50-50-50H173c-27.57,0-50,22.43-50,50v166
			c0,11.247,3.735,21.637,10.027,30H50c-27.57,0-50,22.43-50,50v166c0,27.57,22.43,50,50,50h166c16.339,0,30.87-7.878,40-20.035
			C265.13,504.122,279.661,512,296,512h166c27.57,0,50-22.43,50-50V296C512,268.43,489.57,246,462,246z M246,462
			c0,16.542-13.458,30-30,30H50c-16.542,0-30-13.458-30-30V296c0-16.542,13.458-30,30-30h166c16.542,0,30,13.458,30,30V462z
			 M256,266.035c-0.009-0.012-0.019-0.023-0.027-0.035h0.054C256.018,266.012,256.008,266.023,256,266.035z M492,462
			c0,16.542-13.458,30-30,30H296c-16.542,0-30-13.458-30-30V296c0-16.542,13.458-30,30-30h166c16.542,0,30,13.458,30,30V462z"/>
	</g>
</g>
<g>
	<g>
		<path d="M386.069,125.93C384.21,124.07,381.63,123,379,123s-5.21,1.07-7.07,2.93c-1.86,1.86-2.93,4.44-2.93,7.07
			s1.069,5.21,2.93,7.07c1.861,1.86,4.44,2.93,7.07,2.93s5.21-1.07,7.069-2.93c1.86-1.86,2.931-4.44,2.931-7.07
			S387.93,127.79,386.069,125.93z"/>
	</g>
</g>
<g>
</g>
<g>
</g>
<g>
</g>
<g>
</g>
<g>
</g>
<g>
</g>
<g>
</g>
<g>
</g>
<g>
</g>
<g>
</g>
<g>
</g>
<g>
</g>
<g>
</g>
<g>
</g>
<g>
</g>
</svg>
