<svg width="24" height="24" viewBox="0 0 24 24" fill="none" xmlns="http://www.w3.org/2000/svg">
<path d="M8.39062 20.6094H15.6016C16.9375 20.6094 17.7578 19.8672 17.8203 18.5312L18.3281 7.45312H19.0625C19.5703 7.45312 19.9453 7.09375 19.9453 6.59375C19.9453 6.10156 19.5625 5.74219 19.0625 5.74219H15.75V4.60938C15.75 3.30469 14.9297 2.57031 13.4766 2.57031H10.5C9.04688 2.57031 8.23438 3.30469 8.23438 4.60938V5.74219H4.92188C4.42969 5.74219 4.04688 6.10156 4.04688 6.59375C4.04688 7.09375 4.42969 7.45312 4.92188 7.45312H5.65625L6.17188 18.5312C6.23438 19.875 7.04688 20.6094 8.39062 20.6094ZM10.0312 4.67188C10.0312 4.33594 10.2656 4.13281 10.6328 4.13281H13.3438C13.7188 4.13281 13.9531 4.33594 13.9531 4.67188V5.74219H10.0312V4.67188ZM8.625 18.8672C8.21875 18.8672 7.95312 18.5781 7.92969 18.1172L7.42969 7.45312H16.5391L16.0547 18.1172C16.0391 18.5859 15.7734 18.8672 15.3594 18.8672H8.625ZM9.71094 17.7344C10.1016 17.7344 10.3438 17.4844 10.3359 17.125L10.1016 9.23438C10.0938 8.86719 9.83594 8.63281 9.46875 8.63281C9.08594 8.63281 8.84375 8.875 8.85938 9.24219L9.08594 17.1328C9.09375 17.4922 9.35156 17.7344 9.71094 17.7344ZM11.9922 17.7344C12.3672 17.7344 12.625 17.4922 12.625 17.1328V9.22656C12.625 8.86719 12.3672 8.63281 11.9922 8.63281C11.625 8.63281 11.3672 8.86719 11.3672 9.22656V17.1328C11.3672 17.4922 11.625 17.7344 11.9922 17.7344ZM14.2812 17.7344C14.6406 17.7344 14.8906 17.5 14.8984 17.1328L15.1328 9.24219C15.1406 8.875 14.8984 8.63281 14.5234 8.63281C14.1484 8.63281 13.8984 8.86719 13.8906 9.23438L13.6562 17.125C13.6484 17.4844 13.8906 17.7344 14.2812 17.7344Z" fill="#842424"/>
</svg>
