<svg width="25" height="24" viewBox="0 0 25 24" fill="none" xmlns="http://www.w3.org/2000/svg">
<path d="M7.1908 12.3594C7.1908 12.7422 7.33142 13.0625 7.65173 13.375L13.558 19.1641C13.8002 19.3984 14.0814 19.5156 14.4252 19.5156C15.1127 19.5156 15.683 18.9609 15.683 18.2734C15.683 17.9219 15.5345 17.6094 15.2767 17.3516L10.1283 12.3516L15.2767 7.35938C15.5345 7.10938 15.683 6.78906 15.683 6.44531C15.683 5.76562 15.1127 5.20312 14.4252 5.20312C14.0814 5.20312 13.8002 5.32031 13.558 5.55469L7.65173 11.3438C7.33142 11.6484 7.19861 11.9688 7.1908 12.3594Z" fill="#767371"/>
</svg>
