<svg width="25" height="24" viewBox="0 0 25 24" fill="none" xmlns="http://www.w3.org/2000/svg">
<path d="M17.9122 12.3594C17.9122 11.9688 17.7715 11.6484 17.4512 11.3438L11.545 5.55469C11.3106 5.32031 11.0215 5.20312 10.6778 5.20312C9.9903 5.20312 9.4278 5.76562 9.4278 6.44531C9.4278 6.78906 9.56842 7.10938 9.82623 7.35938L14.9747 12.3516L9.82623 17.3516C9.56842 17.6094 9.4278 17.9219 9.4278 18.2734C9.4278 18.9609 9.9903 19.5156 10.6778 19.5156C11.0215 19.5156 11.3106 19.3984 11.545 19.1641L17.4512 13.375C17.7794 13.0625 17.9122 12.7422 17.9122 12.3594Z" fill="#767371"/>
</svg>
